<?xml version="1.0" standalone="no"?>
<!DOCTYPE svg PUBLIC "-//W3C//DTD SVG 20010904//EN"
 "http://www.w3.org/TR/2001/REC-SVG-20010904/DTD/svg10.dtd">
<svg version="1.0" xmlns="http://www.w3.org/2000/svg"
 width="1045.000000pt" height="328.000000pt" viewBox="0 0 1045.000000 328.000000"
 preserveAspectRatio="xMidYMid meet">
<metadata>
Created by potrace 1.16, written by Peter Selinger 2001-2019
</metadata>
<g transform="translate(0.000000,328.000000) scale(0.100000,-0.100000)"
fill="#000000" stroke="none">
<path d="M4383 3024 c-102 -48 -137 -107 -137 -234 -1 -75 3 -91 28 -137 61
-111 186 -150 328 -102 105 35 107 38 108 155 l0 101 -107 -1 -108 -1 -3 -42
-3 -41 58 0 57 1 1 -32 c1 -28 -4 -35 -39 -53 -79 -40 -168 -16 -200 55 -49
108 -6 242 85 262 56 13 132 -17 142 -55 4 -16 11 -19 34 -14 15 3 37 7 48 8
11 2 20 8 19 14 -1 7 -2 18 -2 26 -3 18 -52 71 -80 86 -62 31 -165 33 -229 4z"/>
<path d="M5678 3044 c-2 -1 -17 -5 -33 -8 -69 -13 -145 -94 -159 -171 -36
-189 45 -317 210 -332 183 -18 296 128 258 331 -11 64 -63 131 -121 157 -36
16 -146 33 -155 23z m120 -111 c41 -30 56 -70 56 -149 -1 -84 -21 -125 -74
-151 -108 -51 -201 26 -196 163 3 79 37 140 86 156 32 11 102 1 128 -19z"/>
<path d="M6039 3030 c-1 -20 -1 -427 0 -461 1 -25 4 -26 51 -25 l50 0 0 208 0
207 84 -2 c93 -3 116 -14 116 -56 0 -50 -21 -65 -89 -66 -33 0 -61 -2 -62 -5
0 -3 -2 -21 -3 -40 -3 -30 1 -37 27 -50 19 -9 54 -50 92 -106 l62 -91 56 0
c32 0 57 4 57 8 0 16 -119 186 -134 192 -24 10 -19 24 11 32 23 6 81 56 84 74
19 95 -26 175 -106 187 -11 2 -82 5 -158 6 -116 3 -137 1 -138 -12z"/>
<path d="M6727 3044 c-2 -2 -12 -5 -23 -7 -101 -20 -176 -126 -176 -247 1
-105 38 -176 116 -225 45 -27 57 -30 136 -30 78 0 92 3 151 33 l65 33 -1 102
-1 102 -99 1 c-55 0 -105 -3 -110 -7 -9 -7 -10 -25 -6 -72 1 -5 16 -8 34 -7
73 4 77 2 77 -33 0 -30 -5 -36 -37 -50 -94 -42 -184 -8 -211 79 -14 45 -9 131
9 172 19 43 76 71 137 68 38 -2 51 -8 76 -38 31 -35 41 -38 103 -23 20 5 21 8
12 34 -14 38 -55 80 -98 98 -30 13 -145 25 -154 17z"/>
<path d="M1548 3035 c-2 -1 -32 -5 -68 -9 -178 -17 -379 -87 -571 -198 -24
-14 -24 -14 -119 -86 -174 -132 -334 -335 -424 -541 -37 -85 -82 -226 -92
-291 -3 -19 -7 -37 -9 -40 -7 -11 -17 -168 -17 -250 0 -117 11 -204 39 -315 8
-33 17 -67 18 -75 17 -73 115 -283 162 -347 12 -17 23 -36 23 -41 0 -6 4 -12
8 -14 4 -2 29 -30 54 -64 63 -82 212 -221 305 -284 187 -127 405 -209 633
-237 116 -14 323 -6 424 17 23 5 52 11 66 13 138 25 444 172 523 252 9 8 18
15 22 15 12 0 137 122 210 205 44 51 131 186 174 271 38 76 100 245 107 289 1
11 7 43 13 72 25 124 31 285 17 413 -45 409 -272 780 -616 1010 -8 5 -31 20
-51 33 -76 51 -308 149 -384 163 -5 1 -35 7 -65 13 -30 6 -73 14 -95 17 -42 6
-282 13 -287 9z m267 -80 c131 -16 281 -60 414 -122 42 -19 78 -39 79 -44 2
-5 9 -9 15 -9 30 0 215 -146 298 -235 82 -88 226 -295 213 -307 -2 -3 2 -11
11 -18 8 -7 15 -18 15 -24 0 -6 6 -23 14 -37 55 -107 101 -314 108 -492 3 -61
1 -67 -17 -67 -26 -1 -2603 -1 -2631 0 -17 0 -20 6 -17 33 1 17 5 68 7 112 12
208 98 451 229 644 54 79 209 243 286 302 131 100 337 199 486 234 17 4 39 9
50 12 115 26 307 35 440 18z m-1044 -1570 c5 -4 22 -8 37 -11 15 -2 38 -9 52
-14 154 -60 357 -65 581 -15 182 41 266 41 429 0 183 -45 373 -46 525 0 190
57 259 63 380 35 63 -14 165 -51 165 -59 0 -13 -38 -138 -55 -178 l-17 -42
-36 16 c-62 27 -143 41 -222 37 -88 -4 -85 -3 -226 -43 -187 -53 -249 -57
-386 -27 -40 9 -83 18 -96 21 -13 2 -31 6 -40 9 -9 3 -29 8 -44 11 -16 3 -40
8 -55 11 -35 8 -170 8 -203 1 -14 -3 -47 -10 -75 -16 -27 -5 -81 -17 -120 -26
-178 -42 -239 -40 -460 20 -197 52 -327 54 -429 4 -30 -14 -42 -16 -47 -7 -17
27 -69 199 -64 209 13 20 149 63 230 72 42 4 164 -1 176 -8z m251 -535 c176
-58 290 -61 456 -11 17 5 32 7 32 4 0 -3 6 -1 13 5 15 13 96 26 148 24 19 0
62 -8 95 -17 230 -65 369 -66 509 -5 57 25 125 40 176 40 58 0 178 -34 218
-62 l21 -15 -22 -29 c-12 -16 -48 -55 -80 -87 -44 -43 -64 -56 -78 -52 -23 7
-106 8 -138 1 -13 -3 -78 -23 -145 -44 -67 -22 -143 -40 -170 -41 -44 -1 -179
24 -202 37 -5 4 -14 7 -20 8 -5 1 -38 9 -73 17 -79 19 -168 15 -269 -13 -166
-46 -182 -49 -257 -45 -48 2 -105 15 -176 40 -117 40 -196 54 -255 44 -38 -6
-41 -5 -107 63 -80 82 -93 102 -75 116 29 23 154 59 213 61 50 2 87 -6 186
-39z"/>
<path d="M1597 2894 c-1 -1 -33 -4 -72 -7 -121 -10 -286 -53 -375 -97 -19 -10
-39 -19 -45 -20 -5 -1 -36 -17 -68 -36 -32 -19 -60 -34 -62 -34 -3 0 -26 -16
-52 -36 -104 -78 -193 -163 -254 -242 -35 -46 -68 -89 -74 -96 -56 -67 -161
-321 -180 -437 -4 -24 -9 -53 -11 -64 -2 -11 -6 -50 -9 -87 l-6 -68 1266 0
c696 0 1264 3 1261 8 -2 4 -7 34 -10 67 -3 33 -8 74 -11 90 -3 17 -7 39 -9 50
-41 230 -200 515 -375 670 -19 16 -50 45 -70 62 -20 18 -39 33 -43 33 -4 0
-13 6 -20 13 -28 28 -177 109 -253 138 -109 42 -253 78 -344 85 -81 7 -181 11
-184 8z m-236 -404 l101 -167 217 0 217 -1 99 174 c55 96 102 174 105 174 3 0
49 -73 101 -162 l96 -163 -1 -260 -1 -260 -620 0 -620 0 -1 270 c0 239 2 273
17 300 10 17 34 59 53 95 20 36 53 96 73 133 33 60 39 66 50 51 7 -10 58 -92
114 -184z"/>
<path d="M3250 2789 c0 -220 2 -248 16 -251 9 -2 83 -1 165 2 166 6 188 14
223 84 28 58 16 119 -33 154 l-38 27 29 28 c15 16 29 37 29 48 1 10 2 25 3 32
4 28 -18 69 -51 95 -35 26 -39 26 -189 28 l-154 1 0 -248z m283 140 c33 -41
-2 -91 -63 -88 -19 1 -39 1 -45 -1 -5 -1 -25 -2 -42 -1 l-33 1 0 54 c0 32 5
56 11 58 7 2 44 3 83 1 59 -2 74 -6 89 -24z m-6 -183 c31 -10 44 -55 26 -89
-15 -30 -9 -29 -120 -32 l-83 -3 1 62 c1 33 5 64 11 67 12 8 137 4 165 -5z"/>
<path d="M3757 3032 c-2 -4 -3 -115 -3 -247 l1 -240 50 -3 51 -3 -1 206 0 205
87 0 c78 0 88 -2 102 -22 21 -29 20 -51 -1 -77 -15 -17 -30 -21 -80 -22 l-63
-2 0 -38 c0 -32 5 -40 28 -51 16 -8 51 -50 87 -104 l60 -91 53 -4 c30 -2 58
-2 62 1 12 7 -76 147 -117 187 l-33 32 34 11 c38 12 70 44 81 80 20 66 -9 144
-62 170 -29 14 -330 24 -336 12z"/>
<path d="M4999 3036 c-7 -7 -2 -489 5 -493 5 -3 73 -5 153 -4 161 2 194 11
231 65 16 23 22 47 22 84 0 29 -4 52 -10 52 -5 0 -10 6 -10 13 0 8 -15 22 -33
31 l-32 18 32 34 c27 29 31 40 29 77 -3 48 -28 89 -66 108 -19 9 -313 23 -321
15z m277 -103 c20 -26 17 -56 -7 -77 -16 -14 -38 -18 -91 -17 -38 0 -73 3 -77
5 -6 4 -7 71 -2 106 1 3 38 5 82 3 64 -2 84 -6 95 -20z m17 -204 c22 -27 22
-51 -2 -80 -16 -20 -28 -23 -105 -25 -61 -2 -86 1 -87 9 -2 20 -2 91 0 108 1
13 14 15 89 13 75 -3 89 -6 105 -25z"/>
<path d="M3505 2336 c-141 -35 -220 -128 -214 -254 3 -70 26 -118 79 -166 52
-47 102 -68 249 -107 162 -44 185 -57 195 -116 13 -70 -70 -135 -174 -135 -86
0 -143 31 -175 96 -14 27 -25 56 -25 64 0 11 -12 13 -57 8 -32 -3 -73 -5 -92
-5 l-34 -1 6 -45 c9 -65 55 -152 101 -191 70 -60 133 -78 276 -78 135 1 181
12 252 60 103 71 140 230 82 348 -24 48 -91 104 -152 126 -53 20 -178 57 -223
65 -31 6 -105 44 -119 61 -7 8 -12 25 -12 39 0 54 55 86 152 88 40 1 74 -4 82
-11 8 -6 17 -9 20 -6 9 8 57 -60 61 -86 4 -27 -5 -25 138 -21 l57 1 -5 38
c-12 94 -92 188 -185 218 -66 21 -217 26 -283 10z"/>
<path d="M4432 2334 c-190 -50 -302 -218 -305 -457 -1 -157 43 -280 131 -364
74 -71 149 -103 257 -109 131 -6 233 27 305 99 40 40 114 173 104 188 -5 9
-96 41 -155 55 -24 5 -28 2 -34 -24 -12 -56 -60 -118 -110 -142 -74 -36 -179
-17 -234 41 -17 18 -52 80 -56 99 -27 116 -21 262 13 340 70 160 299 176 372
26 23 -49 27 -51 80 -37 19 6 54 15 78 21 23 6 42 15 42 21 0 23 -52 119 -83
151 -86 91 -259 130 -405 92z"/>
<path d="M7140 2347 c-3 -2 -25 -7 -50 -10 -162 -20 -298 -171 -325 -362 -15
-106 -6 -213 24 -300 37 -106 110 -187 207 -232 67 -31 82 -34 179 -38 150 -7
259 30 348 119 89 88 128 211 123 381 -4 116 -27 192 -81 271 -33 47 -78 94
-91 94 -3 0 -18 8 -32 19 -44 31 -122 52 -212 58 -47 3 -87 3 -90 0z m177
-181 c101 -54 143 -151 137 -315 -4 -126 -43 -205 -128 -259 -53 -33 -161 -40
-218 -14 -101 48 -152 138 -155 277 -2 77 2 107 20 180 2 6 15 29 29 51 27 42
75 78 126 95 38 12 155 3 189 -15z"/>
<path d="M7995 2336 c-98 -24 -162 -74 -197 -153 -17 -38 -19 -59 -15 -109 7
-69 17 -92 62 -142 52 -57 106 -82 300 -133 131 -35 168 -65 160 -127 -9 -68
-77 -113 -173 -115 -97 -1 -168 48 -193 134 l-13 40 -75 -6 c-42 -4 -82 -7
-88 -7 -18 -2 -16 -28 8 -102 28 -85 93 -154 175 -187 50 -19 77 -23 184 -23
152 0 217 21 285 90 96 97 104 263 19 362 -52 61 -110 88 -284 132 -107 27
-165 52 -179 78 -17 32 -13 67 9 87 27 25 105 43 160 38 64 -6 101 -31 127
-85 21 -43 25 -46 55 -43 18 2 59 4 90 4 l58 1 -6 38 c-15 99 -78 176 -174
213 -66 26 -220 33 -295 15z"/>
<path d="M8855 2336 c-75 -20 -99 -32 -139 -67 -75 -66 -99 -179 -58 -273 38
-84 96 -126 230 -165 39 -12 105 -30 144 -42 104 -30 128 -50 128 -104 0 -90
-100 -144 -224 -122 -28 5 -62 18 -77 30 -33 27 -69 87 -69 117 0 22 -2 22
-72 16 -103 -9 -113 -12 -112 -27 11 -105 77 -210 158 -251 70 -36 131 -47
244 -44 171 5 254 49 313 163 30 59 33 188 6 241 -46 87 -115 127 -300 177
-158 43 -170 48 -196 80 -22 29 -20 67 4 91 37 37 175 50 229 22 31 -16 57
-49 63 -80 6 -29 23 -38 63 -34 14 2 49 4 79 5 l54 1 -7 47 c-14 103 -101 193
-211 219 -53 13 -204 13 -250 0z"/>
<path d="M5099 2332 c-12 -2 -14 -68 -14 -455 0 -348 3 -453 12 -457 7 -3 47
-5 90 -4 l78 0 5 200 5 199 177 2 c158 1 176 0 180 -15 2 -9 3 -98 3 -197 -1
-99 2 -182 6 -185 14 -10 171 -3 178 8 3 5 4 212 1 458 l-5 448 -83 1 c-46 0
-87 -4 -90 -10 -4 -5 -8 -75 -8 -155 -1 -80 -2 -157 -3 -171 l-1 -27 -180 0
-180 0 0 179 c0 136 -3 179 -12 180 -29 3 -145 4 -159 1z"/>
<path d="M6019 2326 c-2 -3 -4 -892 -2 -901 3 -8 475 -13 623 -6 24 1 25 3 24
68 -1 38 -2 71 -3 75 -1 4 -103 9 -228 10 l-228 3 -2 355 c-1 195 -2 364 -2
376 -1 19 -7 20 -91 21 -49 0 -90 0 -91 -1z"/>
<path d="M8042 1209 c-204 -25 -317 -195 -236 -357 45 -90 113 -130 314 -183
154 -41 198 -73 185 -138 -13 -68 -69 -104 -168 -106 -69 -2 -129 16 -154 47
-23 28 -53 89 -53 108 0 15 -6 18 -27 16 -16 -2 -57 -7 -92 -11 l-63 -7 6 -42
c16 -96 78 -186 157 -226 113 -58 309 -60 424 -5 104 49 155 132 155 249 0
107 -49 189 -142 237 -32 17 -219 73 -274 83 -40 8 -100 44 -111 68 -17 38 6
82 55 101 53 21 156 17 199 -8 29 -17 58 -62 58 -90 0 -15 172 -16 184 -1 12
14 -1 72 -29 126 -42 81 -138 133 -260 139 -30 1 -57 4 -60 5 -3 1 -33 -1 -68
-5z"/>
<path d="M3237 1191 c-3 -5 -1 -103 2 -138 1 -7 33 -11 104 -11 56 0 117 -1
135 -1 l32 -1 0 -380 0 -380 93 0 92 0 0 380 c0 247 3 380 10 381 5 0 67 1
136 1 l126 1 -1 76 -1 76 -363 1 c-199 1 -364 -1 -365 -5z"/>
<path d="M4089 1177 c0 -28 0 -821 0 -865 l1 -33 92 3 92 3 0 378 0 377 26 1
c105 4 261 -2 283 -10 40 -15 69 -68 63 -113 -11 -82 -47 -103 -183 -107 -54
-1 -100 -4 -102 -6 -3 -4 -5 -82 -2 -127 1 -10 13 -19 32 -23 45 -10 92 -62
202 -228 l99 -147 110 0 110 0 -28 48 c-101 173 -195 300 -245 329 -16 10 -29
20 -29 23 0 3 27 13 59 23 228 72 227 405 -3 479 -17 6 -154 12 -303 14 l-273
3 -1 -22z"/>
<path d="M5276 1191 c-8 -12 -287 -725 -291 -743 -2 -9 -9 -26 -15 -38 -7 -12
-20 -46 -30 -76 l-19 -54 97 0 98 0 38 105 39 105 182 0 183 0 37 -97 c21 -54
41 -102 45 -106 4 -4 50 -6 103 -5 l97 3 -136 340 c-74 187 -143 357 -152 379
-9 21 -30 73 -47 115 l-30 76 -98 1 c-53 1 -99 -1 -101 -5z m109 -237 c2 -11
28 -83 58 -161 30 -79 54 -144 53 -144 -1 -2 -246 -6 -246 -5 0 1 9 26 21 56
11 30 27 75 36 100 8 25 20 56 26 70 6 14 11 27 12 30 7 30 28 80 31 77 3 -2
7 -13 9 -23z"/>
<path d="M5939 1172 c-7 -222 2 -617 16 -687 23 -113 125 -197 258 -213 178
-22 295 6 378 89 69 69 72 91 77 485 l4 352 -94 -2 -93 -1 0 -325 c-1 -302 -2
-328 -20 -365 -11 -22 -35 -48 -52 -58 -63 -36 -185 -26 -235 20 -50 45 -51
57 -54 398 -1 176 -2 323 -3 327 -1 3 -41 6 -91 6 l-90 1 -1 -27z"/>
<path d="M6867 796 c1 -220 2 -427 2 -458 l1 -58 84 0 c91 0 99 5 85 53 -4 15
-5 27 -1 27 4 0 6 115 5 256 l-1 257 29 -44 c17 -24 34 -53 40 -64 5 -11 74
-123 153 -250 l143 -230 95 -3 95 -3 0 460 0 460 -86 -2 -86 -2 0 -303 c0
-333 4 -317 -55 -217 -14 23 -92 151 -173 283 l-148 241 -92 -1 -92 0 2 -402z"/>
<path d="M8650 739 l0 -459 350 0 351 0 -3 77 -3 78 -250 0 c-137 0 -253 3
-256 7 -9 13 -5 226 5 235 4 4 107 8 229 8 l222 0 0 75 0 75 -190 3 c-104 1
-208 3 -230 3 l-40 0 -1 99 c0 94 1 100 20 101 12 0 123 1 249 1 l227 0 0 78
0 78 -340 0 -340 0 0 -459z"/>
<path d="M9509 1197 c-1 -1 -2 -208 -3 -459 l-1 -458 347 0 c192 0 348 3 349
8 4 30 3 135 -1 140 -3 4 -117 7 -255 7 l-250 0 0 125 0 125 228 0 227 0 1 55
c1 54 -1 93 -5 97 -1 2 -76 2 -167 2 -90 0 -173 0 -184 0 -11 0 -39 1 -62 1
l-43 1 0 99 c0 97 1 100 23 101 12 0 124 1 248 1 l225 0 0 77 -1 76 -337 2
c-186 0 -339 0 -339 0z"/>
</g>
</svg>
